inDegrees=no
num_controls=7
num_derivatives=13
num_iterations=109
num_multipliers=7
num_parameters=0
num_slacks=7
num_states=26
objective=0.504056
objective_accelerations=0.016760
objective_balance=0.002481
objective_effort=0.026299
objective_height=0.452980
objective_ligament=0.005536
solver_duration=1341.257328
status=Solve_Succeeded
success=true
DataType=double
version=3
OpenSimVersion=4.5
endheader
time	/jointset/ground_pelvis/pelvis_tilt/value	/jointset/ground_pelvis/pelvis_tx/value	/jointset/ground_pelvis/pelvis_ty/value	/jointset/hip_r/hip_flexion_r/value	/jointset/hip_r/hip_adduction_r/value	/jointset/hip_r/hip_rotation_r/value	/jointset/back/lumbar_extension/value	/jointset/patellofemoral_r/patellar_flexion_r/value	/jointset/knee_r/knee_flexion_r/value	/jointset/knee_r/knee_adduction_r/value	/jointset/knee_r/knee_rotation_r/value	/jointset/ankle_r/ankle_angle_r/value	/jointset/subtalar_r/subtalar_angle_r/value	/jointset/ground_pelvis/pelvis_tilt/speed	/jointset/ground_pelvis/pelvis_tx/speed	/jointset/ground_pelvis/pelvis_ty/speed	/jointset/hip_r/hip_flexion_r/speed	/jointset/hip_r/hip_adduction_r/speed	/jointset/hip_r/hip_rotation_r/speed	/jointset/back/lumbar_extension/speed	/jointset/patellofemoral_r/patellar_flexion_r/speed	/jointset/knee_r/knee_flexion_r/speed	/jointset/knee_r/knee_adduction_r/speed	/jointset/knee_r/knee_rotation_r/speed	/jointset/ankle_r/ankle_angle_r/speed	/jointset/subtalar_r/subtalar_angle_r/speed	/forceset/tau_hip_flexion_r	/forceset/tau_hip_adduction_r	/forceset/tau_hip_rotation_r	/forceset/tau_knee_flexion_r	/forceset/tau_ankle_angle_r	/forceset/tau_subtalar_angle_r	/forceset/tau_lumbar_extension	lambda_cid13_p0	lambda_cid14_p0	lambda_cid14_p1	lambda_cid14_p2	lambda_cid14_p3	lambda_cid14_p4	lambda_cid14_p5	/jointset/ground_pelvis/pelvis_tilt/accel	/jointset/ground_pelvis/pelvis_tx/accel	/jointset/ground_pelvis/pelvis_ty/accel	/jointset/hip_r/hip_flexion_r/accel	/jointset/hip_r/hip_adduction_r/accel	/jointset/hip_r/hip_rotation_r/accel	/jointset/back/lumbar_extension/accel	/jointset/patellofemoral_r/patellar_flexion_r/accel	/jointset/knee_r/knee_flexion_r/accel	/jointset/knee_r/knee_adduction_r/accel	/jointset/knee_r/knee_rotation_r/accel	/jointset/ankle_r/ankle_angle_r/accel	/jointset/subtalar_r/subtalar_angle_r/accel	gamma_cid13_p0	gamma_cid14_p0	gamma_cid14_p1	gamma_cid14_p2	gamma_cid14_p3	gamma_cid14_p4	gamma_cid14_p5
0	-0.00650715174858385	0.09625670050987875	0.9427243369505153	0.1762555222360518	-0.2321515163012855	-0.2615925334642766	-0.038598046466844	0.07317863873451012	0.07317863873451017	0.1745265752325291	0.1744860827170739	0.03247278518263602	-0.003451367605168791	0	0	0	0	0	0	0	0	0	0	0	0	0	0.2026001523350174	-0.159835182444888	-0.04647985900300623	-0.4215122357248836	0.4628352322721707	-0.1572920025804471	-0.09449900191614513	-39.07493075413623	98.92094739509717	-41.27964588632248	-4.052286720076131	-64.00820105154165	-684.8814922447173	52.7136853658496	0.3402241764745292	0.2805349400519849	-0.1649636049800086	2.254886079583992	-0.006123392788987492	1.524960917005638	-3.560159670992656	5.067730385427506	5.067730385427334	-1.350457347544637	-0.008408739830472453	2.953791334423793	0.6633154645975683	-1.699486014853718e-08	-2.475127172605481e-08	1.054291297405213e-07	-2.148507613780476e-07	4.016186393766662e-09	-1.09680007899128e-07	2.702416978525738e-07
0.01	-0.006485002662872126	0.09627180739150001	0.9427169499342668	0.1763604374838429	-0.2321485670142415	-0.2615104736916675	-0.03877939185693381	0.07342801184311629	0.07342801184311672	0.1744529455589159	0.1744781326804221	0.03262179655814177	-0.003414476415385868	0.004734400410304713	0.003118870304579434	-0.001436535916657189	0.02063213792381147	0.0008001780920773259	0.01639118876608506	-0.03639436252207376	0.04996383698992832	0.04996383698992607	-0.01517070489295785	-0.001600118675044613	0.03006044282754566	0.007665597295260961	0.202350450927227	-0.1778144179739418	-0.04647227555845405	-0.4236212243946387	0.4639711803642095	-0.1412262327909684	-0.09395971797452632	-39.08317750115396	99.9327141309745	-34.22298972221471	-5.065530088289393	-66.17597557101753	-685.1743203650328	66.97796308344692	0.5857352388767497	0.3421879759459274	-0.1268904210527905	1.914738803135499	0.1546059447912637	1.69304693217895	-3.697867218432025	4.974096045043184	4.974096045042971	-1.667108606133813	-0.2373661881342536	3.070897675245849	0.8612769737792504	4.19528748333252e-08	1.838916696491394e-08	-2.872053365994669e-07	2.503593103371377e-08	2.293100346699671e-08	-6.429113383493396e-08	-1.020235935028412e-07
0.02	-0.006406372119943642	0.09632102795622408	0.9426964191916428	0.1766611463417434	-0.2321313124393595	-0.2612651322162433	-0.03932843940736776	0.07417970045947582	0.07417970045947588	0.1742142625271775	0.1744538709056571	0.03307915774558834	-0.003292310230292557	0.01129629144334192	0.006822736620558921	-0.002628745275082708	0.03915872202185407	0.002861057567562098	0.03265634056293072	-0.07354043206883903	0.1004631015505642	0.1004631015505612	-0.03301067162441374	-0.003262347621801219	0.06166996238812721	0.01705499906207749	0.2021007495194355	-0.1957936535029974	-0.04646469211390672	-0.4257302130643937	0.4651071284562474	-0.1251604630014918	-0.09342043403290747	-39.10767918307438	100.9946835819716	-27.17555103122591	-6.056735343611986	-68.52088106703498	-684.752940686184	81.09078933840885	0.7057223010210292	0.3975341423319951	-0.1160982933336747	1.833775314430217	0.246016883892502	1.499753523157758	-3.71050107593096	5.174815899569023	5.174815899569151	-1.884309715244247	-0.02083079417287247	3.263606681030973	1.008076358908681	1.009006098151876e-07	6.15296056558827e-08	-6.798398029394551e-07	2.649226234454752e-07	4.184582054022676e-08	-1.890225977073989e-08	-4.742888848582562e-07
0.03	-0.006257206711007096	0.09640775014612643	0.9426645291981656	0.1771409595509163	-0.2320906921953821	-0.2608614418526651	-0.04024763888276688	0.07543545104749648	0.0754354510474969	0.1737923163133153	0.174415844610371	0.033853720510081	-0.003072917603983266	0.01843387098281346	0.01037319974035268	-0.003771582337008177	0.05687023925317276	0.005126563486856257	0.04786448517503671	-0.109933478380071	0.1503783331355997	0.1503783331356004	-0.05099709864719022	-0.004211565235749124	0.09283542947545667	0.02658772836993038	0.1924528408082515	-0.1949815907599528	-0.04329687726030717	-0.4073627047851827	0.4338763909860474	-0.1151707093039422	-0.08651808578619806	-39.14814415654855	91.27833173252814	-24.58534903873486	-6.415901911874125	-60.6604940572173	-684.5897004377076	84.72866281918175	0.7023466290695832	0.3115355994277935	-0.1167293471302946	1.749795695521393	0.1963093078620329	1.498816176882054	-3.548808714961583	4.853553931972339	4.853553931972709	-1.698658266431121	-0.1121976277200609	2.981960196202471	0.8904243811400862	9.490971554546249e-08	5.431954121008386e-08	-6.298894764767133e-07	1.959786189886476e-07	4.277972249226949e-08	-8.219324375656861e-08	-3.868380648895481e-07
0.04	-0.006039751336985004	0.09652552360775168	0.942620540247164	0.1777998790860101	-0.2320315185198286	-0.2603121757936362	-0.04151978928246648	0.07718108938016834	0.07718108938016814	0.1732019360150947	0.1743722800624014	0.03492772664017082	-0.002765287051712146	0.02495428446044056	0.01303299096513573	-0.005048536779960722	0.07497998720603966	0.006571743882717506	0.06177147965294393	-0.1441306169289513	0.1984406504806961	0.1984406504806958	-0.06669748849543723	-0.004369998158269457	0.1215586355075276	0.03470258425444293	0.182804932098375	-0.19416952801691	-0.04012906240671279	-0.3889951965059721	0.4026456535158462	-0.1051809556063947	-0.0796157375394884	-39.20430570469241	81.60926455176126	-21.99892387894426	-6.760695103900112	-52.97001318705335	-683.7616648401236	88.23054737862169	0.5822890886521416	0.2193997633298515	-0.1429217695390901	1.913421458739857	0.08195177920592392	1.239523496317976	-3.271319523460648	4.804233051581198	4.804233051580387	-1.427102280338336	0.1373261441126465	2.775154469979268	0.7245016742406137	8.757988046642631e-08	4.607132206043415e-08	-5.708136903685542e-07	1.206669712974161e-07	4.334288392634958e-08	-1.477250495578617e-07	-2.89908562213126e-07
